<?xml version="1.0"?><svg width="224.65625" height="254.26528999999996" xmlns="http://www.w3.org/2000/svg" xmlns:xlink="http://www.w3.org/1999/xlink">
 <title/>
 <defs>
  <symbol width="128px" id="svg_42" height="128px" xmlns:xlink="http://www.w3.org/1999/xlink">
   <defs>
    <linearGradient id="svg_31">
     <stop stop-color="#000000" offset="0" id="svg_41"/>
     <stop stop-color="#000000" stop-opacity="0" offset="1" id="svg_40"/>
    </linearGradient>
    <linearGradient id="svg_33">
     <stop stop-color="#000000" offset="0" id="svg_39"/>
     <stop stop-color="#000000" stop-opacity="0" offset="1" id="svg_38"/>
    </linearGradient>
    <linearGradient id="svg_35">
     <stop stop-color="#dec164" offset="0" id="svg_37"/>
     <stop stop-color="#d5a864" offset="1" id="svg_36"/>
    </linearGradient>
    <linearGradient y2="288.36218" y1="112.36218" xlink:href="#svg_35" x2="197" x1="114" id="svg_34" gradientUnits="userSpaceOnUse" gradientTransform="translate(84.00000,5.000000)"/>
    <linearGradient y2="543.17145" y1="501.27704" xlink:href="#svg_33" x2="392.05878" x1="359.40097" id="svg_32" gradientUnits="userSpaceOnUse"/>
    <linearGradient y2="546.3053" y1="499.79263" xlink:href="#svg_31" x2="448.46774" x1="408.05783" id="svg_30" gradientUnits="userSpaceOnUse"/>
    <linearGradient id="svg_27">
     <stop stop-color="#ffffff" offset="0" id="svg_29"/>
     <stop stop-color="#ffffff" stop-opacity="0" offset="1" id="svg_28"/>
    </linearGradient>
    <radialGradient xlink:href="#svg_27" r="12.239094" id="svg_26" gradientUnits="userSpaceOnUse" gradientTransform="scale(1.022475,0.978019)" fy="42.72097" fx="44.699298" cy="42.72097" cx="44.699298"/>
   </defs>
   <g id="svg_17">
    <g transform="matrix(1.365892,0.000000,0.000000,1.365892,-272.5907,-673.4797)" id="svg_18">
     <path fill="#404040" fill-rule="evenodd" stroke-width="0.999999px" id="svg_25" d="m260.778198,525.727722c-6.228134,5.561951 -9.981262,17.506042 -13.071503,23.504578c-4.395889,3.232056 -5.500473,-3.098755 -7.841537,-5.424683c-4.681305,-5.306335 -10.282654,-9.955811 -17.211945,-11.570129c-8.486496,2.301147 -16.692398,7.675598 -18.775085,16.63562c-1.271637,3.708374 2.204178,7.700195 4.396744,10.305481c5.499268,5.798767 11.883194,10.691772 19.853134,12.525818c8.517319,1.296204 16.366577,-1.061279 23.396744,-6.015076c5.855133,-4.058716 7.62204,-10.951416 9.780151,-17.283508c1.492493,-4.243469 4.105682,-12.209961 5.730469,-13.277893c2.544342,0.748474 -4.84613,-5.717957 -6.257172,-9.400208z"/>
     <path fill="#b9a165" fill-rule="evenodd" stroke-width="1px" id="svg_24" d="m259.96817,524.289246c0,0 16.525482,-4.482178 25.245972,-2.611633c2.720459,0.870544 5.223297,0.544067 4.896851,2.611633c-0.326477,2.067566 -1.294098,4.961609 -3.47049,4.961609c-7.426361,-2.5 -17.786011,5.674744 -18.874207,6.218811c-1.838165,-1.455872 -5.777496,-7.943726 -7.798126,-11.18042z"/>
     <path fill="#000000" fill-opacity="0.082353" fill-rule="evenodd" stroke-width="1px" id="svg_23" d="m263.5,532.25c0,0 2.625,2.125 3.875,3.125c3.5,-1.125 9.625,-5.375 15.625,-7c-6.5,-3 -16,0.5 -19.5,3.875z"/>
     <path fill="#000000" fill-opacity="0.082353" fill-rule="evenodd" stroke-width="1px" id="svg_22" d="m204.125,553.25c0,0 2.25,3.25 5.625,2.125c3.375,-1.125 9.5,-5 11.375,-7c0.625,4.875 17.875,21.125 23.125,21c-12.625,3.5 -28.5,3.625 -40.125,-16.125z"/>
     <path fill="#000000" fill-opacity="0.082353" fill-rule="evenodd" stroke-width="1px" id="svg_21" d="m265.125,532.819458c0,0 1.25,1.375 2.5,2.375c3.5,-1.125 7.625,-4.375 13.625,-6c-6.75,-1.875 -12.625,0.25 -16.125,3.625z"/>
     <path fill="#000000" fill-rule="evenodd" stroke-width="0.999999px" id="svg_20" d="m277.625,520.75c-6.35611,0.138977 -12.841797,1.037415 -18.625,3.8125c3.258423,2.273376 -2.040405,4.211121 -3.125,6.1875c-4.813492,5.126709 -3.77858,13.262085 -8.71875,18.28125c-4.395889,3.232117 -5.065186,-3.642822 -7.40625,-5.96875c-4.028397,-5.632813 -10.391479,-10.826355 -17.429596,-11.57019c-8.486496,2.301208 -17.01886,8.219727 -19.101532,17.179749c-1.271637,3.708435 1.877716,7.917847 4.070282,10.523132c5.499283,5.798767 12.209641,11.127075 20.179596,12.96106c8.517319,1.296265 17.563583,-0.952454 24.59375,-5.90625c5.855133,-4.058655 7.404419,-11.386658 9.5625,-17.71875c1.492493,-4.243469 2.255768,-8.945435 4.96875,-12.625c2.544342,0.748474 4.783325,-2.154724 7.3125,-3.375c3.849121,-2.335327 8.837982,-5.018311 13.21875,-2.34375c2.340057,-1.179443 5.778381,-4.700623 3.375,-7.34375c-3.142273,-2.214539 -7.516327,-1.843628 -11.28125,-2.09375c-0.529663,-0.005005 -1.064148,-0.008789 -1.59375,0zm0,1c3.938568,0.106934 7.626923,-0.34613 11.234558,1.359436c2.490417,2.816467 -1.577606,6.362061 -4.703308,5.046814c-5.421448,-0.515259 -9.735107,2.539551 -14.101654,5.234558c-0.637695,0.446411 -1.716888,1.182556 -2.492096,1.327942c-1.325165,-1.013916 -3.052979,-3.471985 -4.40625,-5.75c-1.180664,-1.987427 -1.766083,-3.220398 -2.03125,-3.75c-0.005615,-0.163879 0.042114,-0.348022 0,-0.5c5.2146,-2.110962 10.90799,-2.844604 16.5,-2.96875zm-16.84375,4.359558c0.442627,0.8479 0.1492,2.324707 1.02359,3.79657c1.238586,2.084961 3.225769,3.794128 4.69516,5.125122c-0.91394,0.288513 -1.720276,0.771606 -2.03125,2.21875c-3.533386,7.896362 -5.375061,16.398132 -9.866974,23.875122c-5.113632,6.682739 -13.450607,9.040894 -21.562622,9.562622c-6.536957,0.646301 -12.353882,-1.633057 -17.257904,-5.687744c-4.281219,-3.602295 -8.755676,-7.408875 -11.28125,-12.5c-0.519043,-4.922729 2.585312,-9.539124 6.03125,-12.8125c3.459793,-3.198608 7.742004,-5.45697 12.28125,-6.6875c9.228027,1.341492 16.386658,8.986023 19.8125,17.28125c3.436325,2.08728 6.779556,-1.28363 7.875,-4.375c2.534393,-5.191711 2.607132,-11.671204 7.25,-15.6875c1.286713,-0.850403 2.4487,-2.819702 3.03125,-4.109192zm-37.65625,7.546692c-5.726501,1.799011 -11.132706,5.275696 -14.3125,10.46875c-1.492874,2.441467 -2.604324,5.161926 -3.03125,8c-0.020355,1.30188 1.565506,1.777527 2.59375,1.3125c2.290985,-0.643921 4.238449,-2.092834 6.09375,-3.53125c2.262314,-1.871826 4.35672,-3.934143 6.34375,-6.09375c1.650467,-1.867676 3.306747,-3.98114 3.625,-6.53125c0.101944,-1.318359 -0.386475,-2.679749 -1.3125,-3.625zm3.3125,1.8125c-0.986099,8.566772 -7.107971,16.461304 -17.828186,19.51532l0.382782,0.562622c13.13736,-3.338318 17.480804,-11.196777 17.906494,-19.88269l-0.46109,-0.195251z"/>
     <path fill="#000000" fill-opacity="0.082353" fill-rule="evenodd" stroke-width="1px" id="svg_19" d="m203.9375,553.228394c0,0 2.25,3.25 5.625,2.125c3.375,-1.125 8.25,-3.75 10.125,-5.75c0.625,4.875 17.5,20.625 22.75,20.5c-13.5,3.375 -25.75,1.25 -38.5,-16.875z"/>
    </g>
   </g>
  </symbol>
 </defs>
 <g>
  <title>Layer 1</title>
  <g id="layer1">
   <path fill="#ffffff" fill-rule="nonzero" stroke="#000000" stroke-width="3.287356" stroke-linecap="round" stroke-linejoin="round" stroke-miterlimit="4" id="path2383" d="m222.412186,131.980621c0.018005,60.507996 -49.029022,109.570007 -109.537018,109.570007c-60.507996,0 -109.55455,-49.062012 -109.536499,-109.570007c-0.018051,-60.508499 49.028503,-109.569702 109.536499,-109.569702c60.507996,0 109.555023,49.061203 109.537018,109.569702z"/>
   <path fill="#4d4d4d" fill-rule="evenodd" stroke-width="1px" id="path3173" d="m202.69017,72.090424c-5.401001,6.5541 -6.242004,17.009399 -4.559998,21.045395c1.240997,2.9776 9.473999,4.441803 17.347992,5.176804c-3.084015,-9.370399 -7.404999,-18.181404 -12.787994,-26.222198zm-193.414307,29.396194c-2.867569,9.717003 -4.40947,19.981003 -4.406296,30.628006c-0.001663,5.562012 0.423386,11.026993 1.232529,16.362c8.181564,4.750992 18.801361,20.388 27.855164,21.569c11.339203,1.479004 8.874207,-21.692001 1.972015,-23.17099c-6.9021,-1.479004 -9.860199,-12.325012 -10.35321,-24.158012c-0.331085,-7.945 -4.681305,-15.669998 -16.300201,-21.230003zm211.532318,27.73201c-2.915009,1.356979 -5.623016,3.391006 -7.888031,6.317001c-11.83197,15.283005 -21.691986,4.929977 -33.524963,10.352982c-11.832001,5.423004 -3.944031,19.22702 0.493988,32.539017c3.212006,9.636002 -2.606018,28.820999 4.406006,34.757004c22.436005,-19.798004 36.584991,-48.794006 36.574982,-81.070007c0,-0.973007 -0.005005,-1.929001 -0.031006,-2.895996c-0.007996,0.003998 -0.021973,-0.004013 -0.030975,0zm-146.917023,9.274994c4.930206,15.28299 -5.916077,9.860001 -7.888092,20.213013c-1.972107,10.352997 33.031708,13.310989 38.94809,34.511002c5.916016,21.19899 32.539001,9.860001 32.046021,-1.972015c-0.494019,-11.831985 -17.748993,-17.25499 -13.312012,-24.15799c4.437012,-6.902008 13.312012,-21.19902 13.312012,-21.19902l-63.106018,-7.394989z"/>
   <path fill="#000000" fill-opacity="0.313725" fill-rule="nonzero" stroke-width="4" stroke-linecap="round" stroke-linejoin="round" stroke-miterlimit="4" id="path3221" d="m215.790176,94.399521c0.075989,1.681602 0.125,3.393105 0.125,5.094101c0,60.464005 -49.066986,109.531006 -109.532013,109.531006c-47.261688,0 -87.590698,-29.998993 -102.937027,-71.968002c2.653503,58.112 50.67363,104.468002 109.437027,104.468002c60.465027,0 109.532013,-49.067017 109.532013,-109.531006c0,-13.202003 -2.338013,-25.870003 -6.625,-37.594101z"/>
   <path fill="#333333" fill-rule="nonzero" stroke="#000000" stroke-width="4" stroke-linecap="round" stroke-linejoin="round" stroke-miterlimit="4" id="path3172" d="m121.056168,242.550629c0,9.091003 14.665009,9.380997 32.735016,9.380997c18.06897,0 32.734985,0.693985 32.734985,-9.380997c0,-17.716003 -14.666016,-32.093994 -32.734985,-32.093994c-18.070007,0 -32.735016,14.377991 -32.735016,32.093994z"/>
   <path fill="#000000" fill-opacity="0.313725" fill-rule="nonzero" stroke-width="4" stroke-linecap="round" stroke-linejoin="round" stroke-miterlimit="4" id="path3236" d="m197.510178,96.695023c0,45.174606 -55.121002,81.838608 -81.837006,81.838608c-25.718597,0 -81.838104,-36.664001 -81.838104,-81.838608c0,-45.1745 24.625,-81.837799 81.838104,-81.837799c57.222015,0 81.837006,36.6633 81.837006,81.837799z"/>
   <path fill="#000000" fill-opacity="0.313725" fill-rule="evenodd" stroke="#000000" stroke-width="4" stroke-linejoin="round" stroke-miterlimit="4" id="path3174" d="m166.381149,251.330627c0,-16.367004 -9.442993,-26.440002 -9.442993,-26.440002c0,0 3.777008,13.850006 3.14801,26.440002l6.294983,0z"/>
   <path fill="#ffffff" fill-rule="nonzero" stroke="#000000" stroke-width="4" stroke-linecap="round" stroke-linejoin="round" stroke-miterlimit="4" id="path3155" d="m110.214188,1.684105c-30.1297,0.610596 -50.93222,11.653316 -63.625519,28.750015c-24.064392,-2.587799 -44.0625,23.625 -44.0625,23.625c0,0 18.891113,9.446304 32.0625,1.531303c-2.3992,8.7117 -3.5625,18.105896 -3.5625,27.906197c0,45.174995 56.125519,81.843987 81.843994,81.843987c26.716003,0 81.843994,-36.668991 81.843994,-81.843987c0,-9.800301 -1.164001,-19.194496 -3.562988,-27.906197c13.171021,7.915001 32.031006,-1.531303 32.031006,-1.531303c0,0 -19.971008,-26.204597 -44.031006,-23.625c-13.061981,-17.594997 -34.708008,-28.750015 -66.281006,-28.750015c-0.893982,0 -1.777985,-0.017792 -2.655975,0z"/>
   <path fill="#4d4d4d" fill-rule="evenodd" stroke-width="1px" id="path3185" d="m127.088181,3.652855c25.721008,17.926167 -3.049011,17.142365 -8.75,23.281265c-6.5,7 -9,17 -1.5,23.5c7.5,6.5 46,17.5 51.5,-0.5c2.835968,-9.279297 -0.56601,-20.802197 -2.343018,-30.968697c-10.018005,-7.8615 -22.904999,-13.242279 -38.906982,-15.312569z"/>
   <path fill="#ffffff" fill-rule="nonzero" stroke="#000000" stroke-width="15.88889" stroke-linecap="round" stroke-linejoin="round" stroke-miterlimit="4" id="path3157" d="m109.24617,71.510124c0.002991,12.518898 -10.144104,22.669495 -22.663116,22.669495c-12.51889,0 -22.666473,-10.150597 -22.662689,-22.669495c-0.003784,-12.519001 10.143799,-22.669601 22.662689,-22.669601c12.519012,0 22.666107,10.1506 22.663116,22.669601z"/>
   <path fill="#ffffff" fill-rule="nonzero" stroke="#000000" stroke-width="15.88889" stroke-linecap="round" stroke-linejoin="round" stroke-miterlimit="4" id="path3159" d="m161.978165,71.510124c0.003998,12.518898 -10.144012,22.669495 -22.662994,22.669495c-12.519012,0 -22.666016,-10.150597 -22.662994,-22.669495c-0.003021,-12.519001 10.143982,-22.669601 22.662994,-22.669601c12.518982,0 22.666992,10.1506 22.662994,22.669601z"/>
   <path fill="#000000" fill-rule="nonzero" stroke-width="47.666691" stroke-linecap="round" stroke-linejoin="round" stroke-miterlimit="4" id="path3161" d="m141.833176,75.510124c0.000977,4.172997 -3.381012,7.556496 -7.553986,7.556496c-4.173004,0 -7.55603,-3.383499 -7.554016,-7.556496c-0.002014,-4.173004 3.381012,-7.556503 7.554016,-7.556503c4.172974,0 7.554962,3.383499 7.553986,7.556503z"/>
   <path fill="#000000" fill-rule="nonzero" stroke-width="47.666691" stroke-linecap="round" stroke-linejoin="round" stroke-miterlimit="4" id="path3163" d="m99.803085,75.510124c0.00119,4.172997 -3.381317,7.556496 -7.554321,7.556496c-4.172913,0 -7.555481,-3.383499 -7.554199,-7.556496c-0.001282,-4.173004 3.381287,-7.556503 7.554199,-7.556503c4.173004,0 7.555511,3.383499 7.554321,7.556503z"/>
   <path fill="#ffd5e5" fill-rule="nonzero" stroke="#000000" stroke-width="4" stroke-linecap="round" stroke-linejoin="round" stroke-miterlimit="4" id="path3210" d="m112.870163,114.934624c-19.862305,0 -35.968994,13.216011 -35.968994,29.500008c0,3.018982 0.564117,5.944 1.593811,8.686981c12.711578,7.744019 25.394196,12.218994 34.375183,12.218994c9.197998,0 21.757019,-4.330994 34.281006,-11.875c1.113007,-2.842987 1.718994,-5.885986 1.718994,-9.030975c0,-16.283997 -16.138,-29.500008 -36,-29.500008z"/>
   <path fill="#000000" fill-opacity="0.313725" fill-rule="nonzero" stroke-width="4" stroke-linecap="round" stroke-linejoin="round" stroke-miterlimit="4" id="path3231" d="m191.432175,56.68412l-1.875,2.656303c0.248993,3.075401 0.343994,6.202599 0.343994,9.375c0,45.175201 -55.127014,81.844208 -81.843994,81.844208c-20.705597,0 -61.096497,-23.756004 -76.062195,-56.594208c7.615784,40.246201 57.171783,71.375183 80.875183,71.375183c26.716003,0 81.843994,-36.668991 81.843994,-81.843987c0,-9.391495 -1.075989,-18.410301 -3.281982,-26.8125z"/>
   <path fill="#333333" fill-rule="nonzero" stroke="#000000" stroke-width="4" stroke-linecap="round" stroke-linejoin="round" stroke-miterlimit="4" id="path3329" d="m106.058182,242.550629c0,9.091003 -14.665619,9.380997 -32.735413,9.380997c-18.069794,0 -32.735107,0.693985 -32.735107,-9.380997c0,-17.716003 14.665314,-32.093994 32.735107,-32.093994c18.069794,0 32.735413,14.377991 32.735413,32.093994z"/>
   <path fill="#000000" fill-opacity="0.313725" fill-rule="evenodd" stroke="#000000" stroke-width="4" stroke-linejoin="round" stroke-miterlimit="4" id="path3331" d="m60.732376,251.330627c0,-16.367004 9.44278,-26.440002 9.44278,-26.440002c0,0 -3.777069,13.850006 -3.147583,26.440002l-6.295197,0z"/>
   <path fill="#000000" fill-rule="nonzero" stroke-width="47.666691" stroke-linecap="round" stroke-linejoin="round" stroke-miterlimit="4" id="path2398" d="m129.471176,140.141617c-2.292999,3.973007 -6.501007,5.839005 -9.397003,4.167007c-2.897003,-1.672989 -3.38501,-6.248993 -1.089996,-10.222015c2.291992,-3.972992 6.5,-5.837982 9.395996,-4.165985c2.897003,1.673004 3.38501,6.248993 1.091003,10.220993z"/>
   <path fill="#000000" fill-rule="nonzero" stroke-width="47.666691" stroke-linecap="round" stroke-linejoin="round" stroke-miterlimit="4" id="path2412" d="m96.73378,140.141617c2.292786,3.973007 6.500397,5.839005 9.396393,4.167007c2.897003,-1.672989 3.384979,-6.248993 1.091003,-10.222015c-2.292999,-3.972992 -6.501007,-5.837982 -9.397125,-4.165985c-2.896484,1.673004 -3.384674,6.248993 -1.090271,10.220993z"/>
   <path fill="#333333" fill-rule="evenodd" stroke="#000000" stroke-width="4" stroke-miterlimit="4" id="path2399" d="m53.838669,31.941521c-7.332886,-1.328098 -15.5,-21.5 -12.5,-25.500031c3,-4 26.374084,4.466331 27,13.500034c0.552216,7.969395 -5.385895,13.650597 -14.5,11.999996z"/>
   <path fill="#333333" fill-rule="evenodd" stroke="#000000" stroke-width="4" stroke-miterlimit="4" id="path3171" d="m170.737167,31.941521c7.333008,-1.328098 15.5,-21.5 12.5,-25.500031c-3,-4 -26.373993,4.466331 -27,13.500034c-0.552002,7.969395 5.385986,13.650597 14.5,11.999996z"/>
  </g>
  <ellipse ry="4.587156" rx="10.091743" id="svg_310" cy="157.202595" cx="112.499723" stroke-linecap="null" stroke-linejoin="null" stroke-dasharray="null" stroke-width="null" stroke="null" fill="null"/>
  <use transform="matrix(0.801525 0 0 0.801525 49.1004 69.9838)" x="-43.536323" y="64.192241" xlink:href="#svg_42" id="svg_43"/>
  <path d="m106.077705,165.918198c0,0 -0.458717,0 -0.917435,0c-0.45871,0 -0.776802,0.210464 -1.376144,0.45871c-0.423798,0.175537 -1.051781,-0.324356 -1.376144,0c-0.324356,0.324356 -0.134346,0.593063 -0.458717,0.917435c-0.324364,0.324356 -0.593079,0.134354 -0.917435,0.45871c-0.324356,0.324356 -0.134354,0.593079 -0.45871,0.917435c-0.324364,0.324356 -0.283173,0.493622 -0.458717,0.917435c-0.248253,0.599335 -0.458717,0.917419 -0.917435,0.917419c-0.45871,0 -0.593063,0.134369 -0.917427,0.458725c-0.324356,0.324356 -0.134354,0.593079 -0.458717,0.917435c-0.324356,0.324356 -0.458725,0.45871 -0.917435,0.917419c-0.458717,0.458725 -0.45871,0.917435 -0.45871,1.37616c0,0.45871 0.45871,0.45871 0.917427,0.45871c0.458717,0 0.593079,0.134354 0.917435,0.45871c0.324364,0.324356 1.051781,-0.324356 1.376144,0c0.324371,0.324371 0.134361,0.593079 0.458717,0.917435c0.324364,0.324356 0.593071,0.593079 0.917427,0.917435c0.324364,0.324356 0.593079,0.134354 0.917435,0.45871c0.324364,0.324356 0.458717,0.458725 0.917435,0.458725c0.45871,0 0.493629,0.283173 0.917427,0.45871c0.599342,0.248245 0.776802,0.669174 1.376144,0.917435c0.423798,0.175552 0.77681,0.210464 1.376152,0.45871c0.42379,0.175537 0.917427,0 1.376144,0c0.458717,0 0.776802,0.210464 1.376144,0.458725c0.423798,0.175552 1.051788,-0.324356 1.376152,0c0.324356,0.324356 0.45871,0.45871 0.917427,0.45871c0.458717,0 0.917435,0.45871 1.376152,0.45871c0.45871,0 0.952347,0.175537 1.376144,0c0.599342,-0.248245 0.593071,-0.593063 0.917427,-0.917419c0.324364,-0.324356 0.593063,-0.134354 0.917435,-0.458725c0.324364,-0.324356 0.776794,-0.669174 1.376144,-0.917435c0.423798,-0.175552 0.593071,-0.134354 0.917435,-0.45871c0.324356,-0.324356 0.45871,-0.45871 0.917427,-0.917435c0.45871,-0.45871 0.593079,-0.593063 0.917435,-0.917419c0.324364,-0.324356 0.458717,-0.458725 0.917427,-0.458725c0.458717,0 0.593079,-0.134354 0.917435,-0.45871c0.324364,-0.324356 0.917427,0 1.376144,-0.458725c0.45871,-0.45871 0.458717,-0.917419 0.458717,-1.376144c0,-0.45871 0.134346,-0.593063 0.458717,-0.917435c0.324364,-0.324356 0.324356,-0.134354 0,-0.45871c-0.324364,-0.324356 -0.593071,-0.134354 -0.917435,-0.45871c-0.324371,-0.324371 -0.593063,-0.134369 -0.917427,-0.458725c-0.324356,-0.324356 -0.134346,-0.593063 -0.458717,-0.917435c-0.324364,-0.324356 -0.593071,-0.134354 -0.917435,-0.45871c-0.324356,-0.324356 -0.134338,-0.593063 -0.45871,-0.917435c-0.324364,-0.324356 -0.593071,-0.134354 -0.917435,-0.45871c-0.324356,-0.324356 -0.318085,-0.669174 -0.917427,-0.917435c-0.423798,-0.175552 -1.051788,-0.134354 -1.376152,-0.45871c-0.324371,-0.324371 -0.458717,-0.458725 -0.917427,-0.458725c-0.458717,0 -0.917435,0 -1.376152,0c-0.45871,0 -0.917427,0 -1.376144,0c-0.917427,0 -1.376144,0 -1.834862,0c-0.917435,0 -1.376144,0 -1.834862,0c-0.458717,0 -0.917435,0 -1.376144,0c-0.458717,0 -0.917435,0 -1.376152,0c-0.458717,0 -0.917427,0 -1.376144,0c-0.458717,0 -0.917435,0 -1.376144,0l0,-0.45871" id="svg_311" stroke-linecap="null" stroke-linejoin="null" stroke-dasharray="null" stroke-width="4" stroke="#000000" fill="#7f0000"/>
  <path d="m99.655685,176.927368c0,0 0,0.45871 0,0.917435c0,0.45871 -0.458717,0.45871 -0.458717,0.917419c0,0.458725 -0.134354,0.593079 -0.45871,0.917435c-0.324371,0.324371 0,0.917435 0,1.376144c0,0.458725 0,0.917435 0,1.37616c0,0.45871 0,0.917419 0,1.376144c0,0.45871 0.324371,1.051773 0,1.376144c-0.324364,0.324356 -0.458717,0.45871 -0.458717,0.917435c0,0.45871 -0.134354,0.593063 -0.458717,0.917419c-0.324371,0.324371 -0.458717,0.917435 -0.458717,1.37616c0,0.45871 0,0.917419 0,1.376144c0,0.45871 -0.134354,0.593063 -0.458717,0.917419c-0.324371,0.324371 -0.45871,0.917435 -0.45871,1.37616c0,0.45871 -0.210464,0.776794 -0.458717,1.376144c-0.175537,0.423798 0,0.917435 0,1.376144c0,0.45871 0.175545,0.952347 0,1.376144c-0.248253,0.599335 -0.458717,0.917435 -0.458717,1.376144c0,0.458725 -0.210464,0.77681 -0.458717,1.376144c-0.175545,0.423813 0,0.917435 0,1.37616c0,0.45871 0,0.917419 0,1.376144c0,0.45871 -0.45871,0.45871 -0.45871,0.917435c0,0.45871 0,0.917419 0,1.376144c0,0.45871 0,0.917419 0,1.376144c0,0.45871 -0.140625,1.127899 0.45871,1.376144c0.847603,0.351089 1.235123,0.544037 1.834862,1.376144c0.379318,0.526276 0.917435,0.917435 1.376152,1.376144c0.458725,0.458725 0.917427,0.917435 1.376144,0.917435c0.458717,0 0.458717,0.45871 0.458717,0.917435c0,0.45871 0.593071,0.134354 0.917427,0.45871c0.324371,0.324371 0.28318,0.952347 0.458717,1.376144c0.248253,0.59935 0.593071,0.593079 0.917435,0.917435c0.324371,0.324371 0.458717,0.917435 0.917427,0.917435c0.458717,0 0.318085,0.669174 0.917435,0.917435c0.423798,0.175552 0.28318,0.493622 0.458717,0.917419c0.248253,0.59935 0.503609,1.295609 1.376144,1.834869c0.390205,0.241165 0.669174,0.318085 0.917427,0.917435c0.175537,0.423798 0.134346,0.593063 0.458717,0.917435c0.324364,0.324356 0.593071,0.134354 0.917435,0.45871c0.324356,0.324356 0.283173,0.493622 0.458717,0.917435c0.248253,0.599335 0.593063,0.593079 0.917427,0.917435c0.324356,0.324356 0.669182,0.776794 0.917435,1.376144c0.175537,0.423798 0.134354,0.593063 0.45871,0.917419c0.324364,0.324356 0.669182,0.3181 0.917435,0.917435c0.175545,0.423813 -0.175537,0.882523 0,0.458725c0.248253,-0.59935 0.283173,-0.952347 0.458717,-1.37616c0.248253,-0.599335 0.318085,-1.127884 0.917427,-1.376144c0.423798,-0.175552 0.669182,-0.318085 0.917435,-0.917419c0.175545,-0.423813 0.134361,-0.593079 0.458717,-0.917435c0.324356,-0.324356 0.776802,-0.669189 1.376144,-0.917435c0.423798,-0.175537 0.727425,0.190002 1.376144,-0.45871c0.324371,-0.324371 0.593071,-0.593079 0.917435,-0.917435c0.324371,-0.324371 0.458717,-0.917435 0.917427,-1.376144c0.458717,-0.458725 0.458717,-0.917435 0.917435,-0.917435c0.458717,0 0.741882,-0.034912 0.917427,-0.458725c0.248253,-0.599335 0.593079,-0.593063 0.917435,-0.917419c0.324364,-0.324356 0.593071,-0.134369 0.917435,-0.458725c0.324356,-0.324356 0.210457,-0.776794 0.45871,-1.376144c0.175537,-0.423798 0.283173,-0.493622 0.458717,-0.917435c0.248253,-0.599335 0.593071,-0.593063 0.917435,-0.917419c0.324371,-0.324371 0.45871,-0.917435 0.45871,-1.37616c0,-0.45871 0.28318,-0.493622 0.458717,-0.917419c0.248253,-0.59935 1.127892,-0.77681 1.376144,-1.376144c0.175545,-0.423813 1.16568,-0.3181 0.917435,-0.917435c-0.175545,-0.423798 -0.593071,-0.134369 -0.917435,-0.458725c-0.324356,-0.324356 0.324371,-1.051773 0,-1.376144c-0.324356,-0.324356 -0.669174,-0.318085 -0.917427,-0.917435c-0.175537,-0.423798 -0.134346,-1.051773 -0.458717,-1.376144c-0.324364,-0.324356 -0.593071,-0.134354 -0.917427,-0.45871c-0.324356,-0.324356 -0.669182,-0.77681 -0.917435,-1.376144c-0.175545,-0.423813 -0.917427,-0.917435 -0.917427,-1.376144c0,-0.458725 -0.458717,-0.458725 -0.458717,-0.917435c0,-0.458725 -0.134354,-0.593079 -0.458717,-0.917435c-0.648727,-0.648727 0.175545,-1.411057 0,-1.834869c-0.248253,-0.599335 -0.593071,-0.593063 -0.917435,-0.917419c-0.324371,-0.324371 -0.210457,-0.77681 -0.45871,-1.376144c-0.175545,-0.423813 -0.458717,-0.917435 -0.458717,-1.37616c0,-0.45871 -0.28318,-0.493622 -0.458717,-0.917419c-0.248253,-0.59935 -0.283173,-0.952347 -0.458717,-1.37616c-0.248253,-0.599335 -0.669174,-0.776794 -0.917427,-1.376144c-0.175537,-0.423798 -0.134354,-0.593063 -0.458717,-0.917419c-0.324371,-0.324371 0,-0.917435 0,-1.37616c0,-0.45871 -0.458717,-0.917419 -0.458717,-1.376144c0,-0.917435 0,-1.376144 0,-1.834854c0,-0.458725 -0.134361,-0.593079 -0.458717,-0.917435c-0.324356,-0.324356 -0.45871,-0.45871 -0.45871,-0.917435c0,-0.45871 -0.458717,-0.45871 -0.458717,-0.917435l0,-0.45871l-0.458717,0l0,-0.45871" id="svg_312" stroke-linecap="null" stroke-linejoin="null" stroke-dasharray="null" stroke-width="4" stroke="#000000" fill="#7f0000"/>
  <path d="m98.738258,181.055801c0,0 0,0.458725 0,0.917435c0,0.458725 0.134354,0.593079 0.45871,0.917435c0.324364,0.324356 0.77681,0.210464 1.376152,0.45871c0.42379,0.175537 0.952347,-0.175552 1.376144,0c0.59935,0.24826 0.917435,0.458725 1.376144,0.458725c0.458717,0 0.77681,0.210464 1.376152,0.45871c0.42379,0.175537 0.544029,0.317688 1.376144,0.917435c0.526268,0.379318 0.593056,0.593063 0.917427,0.917435c0.324364,0.324356 0.917435,0.45871 1.376152,0.45871c0.458717,0 0.318085,0.669174 0.917427,0.917435c0.423798,0.175552 0.776802,0.669174 1.376152,0.917435c0.42379,0.175537 0.917427,0 1.376144,0.45871c0.458717,0.45871 0.917435,0.45871 0.917435,0.917435c0,0.45871 0.45871,0.45871 0.45871,0.917419c0,0.458725 0.593071,0.593079 0.917435,0.917435c0.324371,0.324371 0.134361,0.593079 0.458717,0.917435c0.324356,0.324356 0.593071,0.134354 0.917427,0.45871c0.324364,0.324356 0.458717,0.458725 0.917435,0.458725l0.45871,0l0,0.45871l0.458717,0.458725" id="svg_313" stroke-linecap="null" stroke-linejoin="null" stroke-dasharray="null" stroke-width="4" stroke="#000000" fill="none"/>
  <path d="m100.57312,174.633789c0,0 0.527222,-0.241165 0.917427,0c0.872536,0.539261 0.917435,0.917435 1.376152,0.917435c0.45871,0 0.74189,0.034912 0.917427,0.45871c0.248253,0.59935 0.77681,0.669189 1.376144,0.917435c0.423798,0.175537 0.836586,0.223053 1.834862,0.45871c0.446449,0.105392 1.376152,0 1.834869,0c0.45871,0 0.45871,0.458725 0.917427,0.458725c0.458717,0 0.917435,0 1.376144,0c0.458717,0 0.917435,0.45871 1.376152,0.45871c0.458717,0 0.917427,0 1.376144,0l0.458717,0l0.458717,0l0,-0.45871" id="svg_314" stroke-linecap="null" stroke-linejoin="null" stroke-dasharray="null" stroke-width="4" stroke="#000000" fill="none"/>
  <path d="m95.527245,192.064987c0,0 0.470985,-0.105392 0.917435,0c0.998276,0.235657 1.376144,0.45871 1.834862,0.917419c0.458725,0.458725 1.388412,0.812042 1.834862,0.917435c0.998276,0.235672 1.869781,0.741898 2.293579,0.917435c0.599342,0.248245 1.295296,0.681763 2.293579,0.917435c0.446442,0.105392 0.776802,0.210464 1.376144,0.45871c0.423798,0.175537 0.458717,0.45871 0.917427,0.45871c0.917435,0 1.235519,0.210464 1.834869,0.458725c0.42379,0.175537 1.388412,0.353317 1.834862,0.45871c0.998276,0.235672 1.235519,0.669189 1.834862,0.917435c0.423798,0.175537 0.458717,0.45871 0.917427,0.45871c0.458717,0 0.917435,0.458725 1.376152,0.458725c0.45871,0 0.649216,0.086578 0.917427,0.45871c0.848167,1.176773 1.767311,0.996826 2.293579,1.376144c0.832115,0.599747 1.388412,0.353333 1.834862,0.458725c0.998283,0.235657 1.051788,0.593079 1.376144,0.917435c0.324356,0.324356 0.134354,0.593063 0.458717,0.917419c0.324371,0.324371 0.458717,0.458725 0.458717,0.917435l0.458717,0l0,0.45871" id="svg_315" stroke-linecap="null" stroke-linejoin="null" stroke-dasharray="null" stroke-width="4" stroke="#000000" fill="none"/>
  <path d="m95.068527,201.698013c0,0 0.593071,-0.324356 0.917435,0c0.324356,0.324356 0.318085,0.669174 0.917427,0.917435c0.423798,0.175552 0.917435,0.45871 1.376152,0.45871c0.458717,0 1.002754,-0.141037 1.834862,0.45871c0.526276,0.379318 0.377869,1.140488 1.376144,1.376144c0.892891,0.210785 0.917435,0.458725 1.834862,0.458725c0.917435,0 1.376152,0.45871 1.834862,0.45871c0.458717,0 0.77681,0.669189 1.376152,0.917435c0.42379,0.175537 0.45871,0.45871 0.917427,0.45871c0.458717,0 0.593063,0.134354 0.917435,0.458725c0.324364,0.324356 0.952347,0.283157 1.376144,0.45871c0.59935,0.24826 0.836586,0.681778 1.834862,0.917435c0.892891,0.210785 1.411072,-0.175537 1.834862,0c0.599342,0.248245 0.458717,0.917435 0.917435,0.917435c0.458717,0 1.051781,0.134354 1.376144,0.45871c0.324356,0.324356 0.458717,0.45871 0.917435,0.45871c0.45871,0 0.836578,0.223053 1.834862,0.458725c0.446449,0.105392 0.776802,0.210464 1.376144,0.45871c0.423798,0.175537 0.917435,0 0.917435,0.458725l0,0.45871l0.45871,0l0.458717,0" id="svg_316" stroke-linecap="null" stroke-linejoin="null" stroke-dasharray="null" stroke-width="4" stroke="#000000" fill="none"/>
 </g>
</svg>